<svg width="0" height="0" class="hidden">
    <symbol fill="none" xmlns="http://www.w3.org/2000/svg" viewBox="0 0 24 24" id="light-mode">
        <g>
            <path id="Vector"
                  d="M12 16C14.2091 16 16 14.2091 16 12C16 9.79086 14.2091 8 12 8C9.79086 8 8 9.79086 8 12C8 14.2091 9.79086 16 12 16Z"
                  stroke-width="2" stroke-linecap="round" stroke-linejoin="round"/>
            <path id="Vector_2" d="M12 2V4" stroke-width="2" stroke-linecap="round" stroke-linejoin="round"/>
            <path id="Vector_3" d="M12 20V22" stroke-width="2" stroke-linecap="round" stroke-linejoin="round"/>
            <path id="Vector_4" d="M4.92993 4.92969L6.33993 6.33969" stroke-width="2" stroke-linecap="round"
                  stroke-linejoin="round"/>
            <path id="Vector_5" d="M17.6599 17.6602L19.0699 19.0702" stroke-width="2" stroke-linecap="round"
                  stroke-linejoin="round"/>
            <path id="Vector_6" d="M2 12H4" stroke-width="2" stroke-linecap="round" stroke-linejoin="round"/>
            <path id="Vector_7" d="M20 12H22" stroke-width="2" stroke-linecap="round" stroke-linejoin="round"/>
            <path id="Vector_8" d="M6.33993 17.6602L4.92993 19.0702" stroke-width="2" stroke-linecap="round"
                  stroke-linejoin="round"/>
            <path id="Vector_9" d="M19.0699 4.92969L17.6599 6.33969" stroke-width="2" stroke-linecap="round"
                  stroke-linejoin="round"/>
        </g>
    </symbol>

    <symbol fill="none" xmlns="http://www.w3.org/2000/svg" viewBox="0 0 24 24" id="github">
        <g>
            <path id="Vector"
                  d="M15 22V18C15.1392 16.7473 14.78 15.4901 14 14.5C17 14.5 20 12.5 20 9C20.08 7.75 19.73 6.52 19 5.5C19.28 4.35 19.28 3.15 19 2C19 2 18 2 16 3.5C13.36 3 10.64 3 8.00004 3.5C6.00004 2 5.00004 2 5.00004 2C4.70004 3.15 4.70004 4.35 5.00004 5.5C4.27191 6.51588 3.91851 7.75279 4.00004 9C4.00004 12.5 7.00004 14.5 10 14.5C9.61004 14.99 9.32004 15.55 9.15004 16.15C8.98004 16.75 8.93004 17.38 9.00004 18V22"
                  stroke-width="2" stroke-linecap="round" stroke-linejoin="round"/>
            <path id="Vector_2" d="M9 18C4.49 20 4 16 2 16" stroke-width="2" stroke-linecap="round"
                  stroke-linejoin="round"/>
        </g>
    </symbol>

    <symbol xmlns="http://www.w3.org/2000/svg" viewBox="0 0 256 256" id="linkedin">
        <g fill="#4b5563" transform="scale(5.12,5.12)">
            <path d="M8,3.01172c-1.68739,0 -3.16452,0.47991 -4.24609,1.35352c-1.08157,0.8736 -1.74219,2.16798 -1.74219,3.58203c0,2.74357 2.45699,4.8672 5.70508,4.99414c0.09162,0.02933 0.18702,0.04512 0.2832,0.04688c1.75357,0 3.24619,-0.51401 4.3125,-1.42383c1.06631,-0.90981 1.67578,-2.22152 1.67578,-3.61719c-0.00015,-0.01824 -0.0008,-0.03648 -0.00195,-0.05469c-0.15402,-2.76089 -2.61155,-4.88086 -5.98633,-4.88086zM8,4.98828c2.60907,0 3.89588,1.28106 4.00586,2.98438c-0.0071,0.83228 -0.3293,1.53924 -0.97461,2.08984c-0.65244,0.55669 -1.65982,0.94922 -3.03125,0.94922c-2.60195,0 -4.01172,-1.41255 -4.01172,-3.06445c0,-0.82595 0.33939,-1.50502 1.00781,-2.04492c0.66843,-0.5399 1.6913,-0.91406 3.00391,-0.91406zM3,15c-0.55226,0.00006 -0.99994,0.44774 -1,1v29c0.00006,0.55226 0.44774,0.99994 1,1h10c0.55226,-0.00006 0.99994,-0.44774 1,-1v-9.33594v-19.66406c-0.00006,-0.55226 -0.44774,-0.99994 -1,-1zM18,15c-0.55226,0.00006 -0.99994,0.44774 -1,1v29c0.00006,0.55226 0.44774,0.99994 1,1h10c0.55226,-0.00006 0.99994,-0.44774 1,-1v-16v-0.25v-0.25c0,-1.94442 1.55558,-3.5 3.5,-3.5c1.94442,0 3.5,1.55558 3.5,3.5v16.5c0.00006,0.55226 0.44774,0.99994 1,1h10c0.55226,-0.00006 0.99994,-0.44774 1,-1v-17c0,-4.12652 -1.21211,-7.39555 -3.25586,-9.625c-2.04375,-2.22945 -4.89493,-3.375 -7.95703,-3.375c-3.90424,0 -6.26548,1.42608 -7.78711,2.60156v-1.60156c-0.00006,-0.55226 -0.44774,-0.99994 -1,-1zM4,17h8v18.66406v8.33594h-8zM19,17h8v2.63867c0.00013,0.41422 0.2556,0.78549 0.64242,0.93364c0.38682,0.14814 0.82494,0.0425 1.10172,-0.26567c0,0 2.9657,-3.30664 8.04297,-3.30664c2.5729,0 4.82842,0.92227 6.48242,2.72656c1.654,1.8043 2.73047,4.53496 2.73047,8.27344v16h-8v-15.5c0.00126,-0.14111 -0.02737,-0.28089 -0.08398,-0.41016c-0.22196,-2.82573 -2.53569,-5.08984 -5.41602,-5.08984c-3.02558,0 -5.5,2.47442 -5.5,5.5v0.25v0.25v15h-8z"/>
        </g>
    </symbol>
    <symbol fill="none" xmlns="http://www.w3.org/2000/svg" viewBox="0 0 24 24" id="location">
        <g>
            <path id="Vector"
                  d="M20 10C20 16 12 22 12 22C12 22 4 16 4 10C4 7.87827 4.84285 5.84344 6.34315 4.34315C7.84344 2.84285 9.87827 2 12 2C14.1217 2 16.1566 2.84285 17.6569 4.34315C19.1571 5.84344 20 7.87827 20 10Z"
                  stroke="#4B5563" stroke-width="2" stroke-linecap="round" stroke-linejoin="round"/>
            <path id="Vector_2"
                  d="M12 13C13.6569 13 15 11.6569 15 10C15 8.34315 13.6569 7 12 7C10.3431 7 9 8.34315 9 10C9 11.6569 10.3431 13 12 13Z"
                  stroke="#4B5563" stroke-width="2" stroke-linecap="round" stroke-linejoin="round"/>
        </g>
    </symbol>

    <symbol xmlns="http://www.w3.org/2000/svg" viewBox="0 0 32 32" stroke="none" id="html">
        <path d="m5.902 27.201-2.247-25.201h24.69l-2.25 25.197-10.11 2.803z" fill="#e44f26"/>
        <path d="m16 27.858 8.17-2.265 1.922-21.532h-10.092z" fill="#f1662a"/>
        <path d="m16 13.407h-4.09l-.282-3.165h4.372v-3.091h-.011-7.739l.074.83.759 8.517h6.917z" fill="#ebebeb"/>
        <path d="m16 21.434-.014.004-3.442-.929-.22-2.465h-1.673-1.43l.433 4.852 6.332 1.758.014-.004z"
              fill="#ebebeb"/>
        <g fill="#fff">
            <path d="m15.989 13.407v3.091h3.806l-.358 4.009-3.448.93v3.216l6.337-1.757.046-.522.726-8.137.076-.83h-.833z"/>
            <path d="m15.989 7.151v1.92 1.164.007h7.456.01l.062-.694.141-1.567.074-.83z"/>
        </g>
    </symbol>

    <symbol xmlns="http://www.w3.org/2000/svg" viewBox="0 0 32 32" stroke="none" id="react">
        <g fill="#00d8ff">
            <circle cx="16" cy="15.974" r="2.5"/>
            <path d="m16 21.706a28.385 28.385 0 0 1 -8.88-1.2 11.3 11.3 0 0 1 -3.657-1.958 3.543 3.543 0 0 1 -1.463-2.574c0-1.653 1.816-3.273 4.858-4.333a28.755 28.755 0 0 1 9.142-1.348 28.674 28.674 0 0 1 9.022 1.324 11.376 11.376 0 0 1 3.538 1.866 3.391 3.391 0 0 1 1.44 2.491c0 1.718-2.03 3.459-5.3 4.541a28.8 28.8 0 0 1 -8.7 1.191zm0-10.217a27.948 27.948 0 0 0 -8.749 1.282c-2.8.977-4.055 2.313-4.055 3.2 0 .928 1.349 2.387 4.311 3.4a27.21 27.21 0 0 0 8.493 1.139 27.6 27.6 0 0 0 8.325-1.13c3.075-1.019 4.475-2.48 4.475-3.406a2.327 2.327 0 0 0 -1.01-1.573 10.194 10.194 0 0 0 -3.161-1.654 27.462 27.462 0 0 0 -8.629-1.258z"/>
            <path d="m10.32 28.443a2.639 2.639 0 0 1 -1.336-.328c-1.432-.826-1.928-3.208-1.327-6.373a28.755 28.755 0 0 1 3.4-8.593 28.676 28.676 0 0 1 5.653-7.154 11.376 11.376 0 0 1 3.384-2.133 3.391 3.391 0 0 1 2.878 0c1.489.858 1.982 3.486 1.287 6.859a28.806 28.806 0 0 1 -3.316 8.133 28.385 28.385 0 0 1 -5.476 7.093 11.3 11.3 0 0 1 -3.523 2.189 4.926 4.926 0 0 1 -1.624.307zm1.773-14.7a27.948 27.948 0 0 0 -3.26 8.219c-.553 2.915-.022 4.668.75 5.114.8.463 2.742.024 5.1-2.036a27.209 27.209 0 0 0 5.227-6.79 27.6 27.6 0 0 0 3.181-7.776c.654-3.175.089-5.119-.713-5.581a2.327 2.327 0 0 0 -1.868.089 10.194 10.194 0 0 0 -3.01 1.918 27.464 27.464 0 0 0 -5.4 6.849z"/>
            <path d="m21.677 28.456c-1.355 0-3.076-.82-4.868-2.361a28.756 28.756 0 0 1 -5.747-7.237 28.676 28.676 0 0 1 -3.374-8.471 11.376 11.376 0 0 1 -.158-4 3.391 3.391 0 0 1 1.434-2.487c1.487-.861 4.01.024 6.585 2.31a28.8 28.8 0 0 1 5.39 6.934 28.384 28.384 0 0 1 3.41 8.287 11.3 11.3 0 0 1 .137 4.146 3.543 3.543 0 0 1 -1.494 2.555 2.59 2.59 0 0 1 -1.315.324zm-9.58-10.2a27.949 27.949 0 0 0 5.492 6.929c2.249 1.935 4.033 2.351 4.8 1.9.8-.465 1.39-2.363.782-5.434a27.212 27.212 0 0 0 -3.271-7.911 27.6 27.6 0 0 0 -5.145-6.64c-2.424-2.152-4.39-2.633-5.191-2.169a2.327 2.327 0 0 0 -.855 1.662 10.194 10.194 0 0 0 .153 3.565 27.465 27.465 0 0 0 3.236 8.1z"/>
        </g>
    </symbol>
    <symbol xmlns="http://www.w3.org/2000/svg" viewBox="0 0 32 32" stroke="none" id="git">
        <path d="m29.472 14.753-12.225-12.225a1.8 1.8 0 0 0 -2.55 0l-2.539 2.539 3.22 3.22a2.141 2.141 0 0 1 2.712 2.73l3.1 3.1a2.143 2.143 0 1 1 -1.285 1.21l-2.895-2.895v7.617a2.141 2.141 0 1 1 -1.764-.062v-7.687a2.146 2.146 0 0 1 -1.165-2.814l-3.17-3.172-8.383 8.386a1.8 1.8 0 0 0 0 2.551l12.225 12.221a1.8 1.8 0 0 0 2.55 0l12.169-12.172a1.8 1.8 0 0 0 0-2.551"
              fill="#dd4c35"/>
        <path d="m12.158 5.067 3.22 3.22a2.141 2.141 0 0 1 2.712 2.73l3.1 3.1a2.143 2.143 0 1 1 -1.285 1.21l-2.895-2.895v7.617a2.141 2.141 0 1 1 -1.764-.062v-7.687a2.146 2.146 0 0 1 -1.165-2.814l-3.17-3.172"
              fill="#fff"/>
    </symbol>
    <symbol xmlns="http://www.w3.org/2000/svg" viewBox="0 0 32 32" stroke="none" id="styled">
        <path d="m18.05 29.6c.042-.095.148-.161.225-.241 1.175-1.232 2.36-2.453 3.519-3.7a3.2 3.2 0 0 0 1.014-2.659 5.925 5.925 0 0 0 -.143-.624c-.316.3-.61.573-.906.848-.46.428-.918.858-1.382 1.281a1.931 1.931 0 0 1 -2.148.419 1.973 1.973 0 0 1 -1.29-1.75 1.04 1.04 0 0 0 -.043-.146c-.353.3-.691.576-1.026.86l-6.963 5.9c-.048.041-.1.092-.145.132h9.283l-.014-.009c-.05-.035-.024-.219.019-.311z"
              fill="#ffcebf"/>
        <path d="m8.337 29.6a1.239 1.239 0 0 1 .295-.276l9.636-8.175q.986-.837 1.963-1.683a.523.523 0 0 0 .182-.224 5.364 5.364 0 0 0 .065-2.069c-.1.07-.154.1-.2.149-.789.706-1.574 1.418-2.367 2.12a1.762 1.762 0 0 1 -2.048.329 1.889 1.889 0 0 1 -1.08-1.807c0-.085 0-.169 0-.324-.145.106-.251.177-.35.257q-5.785 4.632-11.568 9.257c-.174.139-.382.449-.61.148s.119-.425.294-.565q6.165-4.947 12.336-9.885c.67-.537.714-.762.278-1.615l-.26.244c-.713.663-1.434 1.317-2.136 1.991a2.121 2.121 0 0 1 -3.585-1.337c-.133.1-.248.173-.357.258l-6.1 4.728a1.485 1.485 0 0 1 -.356.258.446.446 0 0 1 -.3-.015v8.561h6.256a.365.365 0 0 1 .012-.325z"
              fill="#ffcebf"/>
        <path d="m25.237 2.423c-.17.557-.335 1.115-.484 1.678a1.688 1.688 0 0 0 .9 2.09 7.122 7.122 0 0 0 3.818.8v-4.473a.73.73 0 0 1 .016-.294.666.666 0 0 1 .105-.149h-4.359c.067.078.044.215.004.348z"
              fill="#ff6196"/>
        <g fill="#ff87af">
            <path d="m16.482 12.032a2.422 2.422 0 0 1 -.5 1.376 22.671 22.671 0 0 1 -3.726 3.792 1.442 1.442 0 0 1 -1.684.2 1.393 1.393 0 0 1 -.843-1.368 1.624 1.624 0 0 1 .417-.947 35.848 35.848 0 0 1 5.019-3.993.71.71 0 0 1 .829-.034 1.041 1.041 0 0 1 .488.974z"/>
            <path d="m15.284 18.093a1.437 1.437 0 0 1 .448-1.2 38.336 38.336 0 0 1 4.87-3.813c.052-.033.1-.066.157-.1a.837.837 0 0 1 1.025.035.861.861 0 0 1 .242.979 4.39 4.39 0 0 1 -1.168 1.908c-1.105 1.1-2.252 2.164-3.4 3.22a1.124 1.124 0 0 1 -1.364.192 1.512 1.512 0 0 1 -.81-1.221z"/>
            <path d="m22.5 18.754c-.28.3-.568.586-.837.893a1.89 1.89 0 0 0 -.2.38c.148.044.321.16.441.119.611-.205 1.207-.451 1.878-.71-.146.336-.256.646-.411.93a12.189 12.189 0 0 1 -2.371 2.872q-.532.513-1.105.981a1.484 1.484 0 0 1 -2.415-.92 1.1 1.1 0 0 1 .238-.813 22.187 22.187 0 0 1 4.623-3.823.193.193 0 0 1 .065-.013z"/>
        </g>
        <path d="m24.794 14.771 1.711-7.6 1.2.281-.619 1.881c-.578 1.75-1.163 3.5-1.727 5.252-.11.324-.254.384-.565.186z"
              fill="#ff6196"/>
        <path d="m22.862 19.241c.181-.691.361-1.33.513-1.976a4.468 4.468 0 0 1 .826-1.721c.243-.319.516-.192.795-.123.258.063.323.252.334.5a2.845 2.845 0 0 1 -.588 1.907 4.8 4.8 0 0 1 -1.88 1.413z"
              fill="#ff6196"/>
        <path d="m29.993 2.894a3.623 3.623 0 0 0 -.017-.668.291.291 0 0 0 -.116-.151.381.381 0 0 0 -.152-.075c-.032-.006-.077.027-.12.074a.666.666 0 0 0 -.105.149.73.73 0 0 0 -.016.294v4.472a7.122 7.122 0 0 1 -3.818-.8 1.688 1.688 0 0 1 -.9-2.09c.149-.563.314-1.121.484-1.678.04-.133.063-.27 0-.348a.2.2 0 0 0 -.135-.064.3.3 0 0 0 -.182.064.434.434 0 0 0 -.171.19c-.2.6-.376 1.206-.529 1.818a2.148 2.148 0 0 0 -.046.737 2.339 2.339 0 0 0 1.542 2c.189.079.3.157.247.406-.073.316-.144.632-.216.949q-.735 3.222-1.462 6.447a.483.483 0 0 1 -.121.257 3.228 3.228 0 0 0 -.791.92 4.8 4.8 0 0 0 -.53 1.5.981.981 0 0 1 -.558.785c-.417.211-.8.484-1.263.768a12.639 12.639 0 0 0 -.018-1.671 1.062 1.062 0 0 1 .284-.96 4.75 4.75 0 0 0 1.258-2.194 1.294 1.294 0 0 0 -1.208-1.7 1.7 1.7 0 0 0 -.929.264c-.957.646-1.888 1.332-2.812 2.026-.547.412-1.062.868-1.592 1.3a.418.418 0 0 1 -.059-.081.842.842 0 0 0 -.059-.214c-.443-.684-.136-1.181.345-1.692a2.793 2.793 0 0 0 .772-1.951 1.568 1.568 0 0 0 -.327-1.026 1.459 1.459 0 0 0 -.438-.363 1.337 1.337 0 0 0 -1.517.162l-.279.2c-.637.456-1.282.9-1.895 1.388-.895.712-1.769 1.454-2.626 2.214-.4.353-.692.835-1.107 1.163-2.164 1.709-4.351 3.387-6.53 5.076a1.022 1.022 0 0 0 -.205.161.164.164 0 0 0 -.016.029c-.046.107-.085.284-.031.349a.141.141 0 0 0 .047.033.446.446 0 0 0 .3.015 1.485 1.485 0 0 0 .356-.258l6.1-4.728c.109-.085.224-.162.357-.258a2.121 2.121 0 0 0 3.585 1.337c.7-.674 1.423-1.328 2.136-1.991l.26-.244c.436.853.392 1.078-.278 1.615q-6.176 4.942-12.343 9.886c-.175.14-.521.267-.294.565s.436-.009.61-.148q5.786-4.621 11.564-9.254c.1-.08.205-.151.35-.257v.324a1.889 1.889 0 0 0 1.08 1.807 1.762 1.762 0 0 0 2.048-.329c.793-.7 1.578-1.414 2.367-2.12.05-.045.108-.079.2-.149a5.364 5.364 0 0 1 -.065 2.069.523.523 0 0 1 -.182.224q-.978.845-1.963 1.683l-9.632 8.176a1.239 1.239 0 0 0 -.295.276.365.365 0 0 0 -.012.321.376.376 0 0 0 .32.063.294.294 0 0 0 .116-.065c.05-.04.1-.091.145-.132l6.963-5.9c.335-.284.673-.564 1.026-.86a1.04 1.04 0 0 1 .043.146 1.973 1.973 0 0 0 1.29 1.75 1.931 1.931 0 0 0 2.148-.419c.464-.423.922-.853 1.382-1.281.3-.275.59-.551.906-.848a5.925 5.925 0 0 1 .143.624 3.2 3.2 0 0 1 -1.014 2.649c-1.159 1.248-2.344 2.469-3.519 3.7-.077.08-.183.146-.225.241s-.069.281-.019.321l.014.009a.573.573 0 0 0 .338.051.136.136 0 0 0 .081-.051c.028-.029.055-.065.082-.092.952-.984 1.909-1.963 2.854-2.954a13.982 13.982 0 0 0 1.074-1.223 3.411 3.411 0 0 0 .61-3.616.516.516 0 0 1 .074-.386c.065-.112.137-.221.211-.329a4.632 4.632 0 0 0 .587-1 7.547 7.547 0 0 1 1.339-2.4 2.792 2.792 0 0 0 .5-2.469.988.988 0 0 1 0-.489c.506-1.567 1.027-3.129 1.543-4.692q.347-1.05.69-2.094l.213-.647c.454 0 .882-.009 1.308 0 .354.01.462-.156.458-.5-.021-1.38-.013-2.759-.013-4.138zm-17.737 14.306a1.442 1.442 0 0 1 -1.684.2 1.393 1.393 0 0 1 -.843-1.368 1.624 1.624 0 0 1 .417-.947 35.848 35.848 0 0 1 5.019-3.993.852.852 0 0 1 .326-.14.656.656 0 0 1 .238 0 .763.763 0 0 1 .265.106 1.041 1.041 0 0 1 .488.975 2.422 2.422 0 0 1 -.5 1.376 22.671 22.671 0 0 1 -3.726 3.791zm5.2 1.929a1.124 1.124 0 0 1 -1.364.192 1.512 1.512 0 0 1 -.81-1.224 1.437 1.437 0 0 1 .448-1.2 38.336 38.336 0 0 1 4.87-3.813c.052-.033.1-.066.157-.1a.837.837 0 0 1 1.025.035.861.861 0 0 1 .242.979 4.39 4.39 0 0 1 -1.168 1.908c-1.103 1.102-2.25 2.163-3.398 3.219zm5.911 1.241a12.189 12.189 0 0 1 -2.367 2.868q-.532.513-1.105.981a1.484 1.484 0 0 1 -2.415-.92 1.1 1.1 0 0 1 .238-.813 22.187 22.187 0 0 1 4.623-3.823.193.193 0 0 1 .065-.013l.1.1c-.28.3-.568.586-.837.893a1.89 1.89 0 0 0 -.2.38c.148.044.321.16.441.119.483-.162.958-.35 1.467-.55l.411-.16c-.154.34-.264.65-.419.934zm1.373-2.535a4.363 4.363 0 0 1 -1.373 1.152q-.247.138-.507.258c.178-.681.356-1.312.507-1.95l.006-.026a4.468 4.468 0 0 1 .826-1.721c.243-.319.516-.192.795-.123.258.063.323.252.334.5a2.845 2.845 0 0 1 -.586 1.906zm2.34-8.5c-.578 1.75-1.163 3.5-1.727 5.252-.106.329-.25.389-.561.191l1.483-6.593.228-1.012 1.2.281c-.082.247-.161.49-.241.731z"/>
    </symbol>
    <symbol xmlns="http://www.w3.org/2000/svg" viewBox="0 0 32 32" stroke="none" id="js">
        <path d="m2 2h28v28h-28z" fill="#f5de19"/>
        <path d="m20.809 23.875a2.866 2.866 0 0 0 2.6 1.6c1.09 0 1.787-.545 1.787-1.3 0-.9-.716-1.222-1.916-1.747l-.658-.282c-1.9-.809-3.16-1.822-3.16-3.964 0-1.973 1.5-3.476 3.853-3.476a3.889 3.889 0 0 1 3.742 2.107l-2.057 1.315a1.789 1.789 0 0 0 -1.689-1.128 1.145 1.145 0 0 0 -1.259 1.128c0 .789.489 1.109 1.618 1.6l.658.282c2.236.959 3.5 1.936 3.5 4.133 0 2.369-1.861 3.667-4.36 3.667a5.055 5.055 0 0 1 -4.795-2.691zm-9.295.228c.413.733.789 1.353 1.693 1.353.864 0 1.41-.338 1.41-1.653v-8.947h2.631v8.982c0 2.724-1.6 3.964-3.929 3.964a4.085 4.085 0 0 1 -3.947-2.4z"/>
    </symbol>
    <symbol xmlns="http://www.w3.org/2000/svg" viewBox="0 0 32 32" stroke="none" id="css">
        <path d="m5.902 27.201-2.246-25.201h24.688l-2.249 25.197-10.11 2.803z" fill="#1572b6"/>
        <path d="m16 27.858 8.17-2.265 1.922-21.532h-10.092z" fill="#33a9dc"/>
        <path d="m16 13.191h4.09l.282-3.165h-4.372v-3.091h.011 7.739l-.074.829-.759 8.518h-6.917z" fill="#fff"/>
        <path d="m16.019 21.218-.014.004-3.442-.93-.22-2.465h-1.673-1.43l.433 4.853 6.331 1.758.015-.004z"
              fill="#ebebeb"/>
        <path d="m19.827 16.151-.372 4.139-3.447.93v3.216l6.336-1.756.047-.522.537-6.007z" fill="#fff"/>
        <g fill="#ebebeb">
            <path d="m16.011 6.935v1.92 1.163.008h-7.456-.01l-.062-.695-.141-1.567-.074-.829z"/>
            <path d="m16 13.191v1.92 1.163.008h-3.389-.01l-.062-.695-.14-1.567-.074-.829z"/>
        </g>
    </symbol>
    <symbol xmlns="http://www.w3.org/2000/svg" viewBox="0 0 32 32" stroke="none" id="typescript">
        <rect fill="#3178c6" height="28" rx="1.312" width="28" x="2" y="2"/>
        <path d="m18.245 23.759v3.068a6.492 6.492 0 0 0 1.764.575 11.56 11.56 0 0 0 2.146.192 9.968 9.968 0 0 0 2.088-.211 5.11 5.11 0 0 0 1.735-.7 3.542 3.542 0 0 0 1.181-1.266 4.469 4.469 0 0 0 .186-3.394 3.409 3.409 0 0 0 -.717-1.117 5.236 5.236 0 0 0 -1.123-.877 12.027 12.027 0 0 0 -1.477-.734q-.6-.249-1.08-.484a5.5 5.5 0 0 1 -.813-.479 2.089 2.089 0 0 1 -.516-.518 1.091 1.091 0 0 1 -.181-.618 1.039 1.039 0 0 1 .162-.571 1.4 1.4 0 0 1 .459-.436 2.439 2.439 0 0 1 .726-.283 4.211 4.211 0 0 1 .956-.1 5.942 5.942 0 0 1 .808.058 6.292 6.292 0 0 1 .856.177 5.994 5.994 0 0 1 .836.3 4.657 4.657 0 0 1 .751.422v-2.863a7.509 7.509 0 0 0 -1.525-.4 12.426 12.426 0 0 0 -1.9-.129 8.767 8.767 0 0 0 -2.064.235 5.239 5.239 0 0 0 -1.716.733 3.655 3.655 0 0 0 -1.171 1.271 3.731 3.731 0 0 0 -.431 1.845 3.588 3.588 0 0 0 .789 2.34 6 6 0 0 0 2.395 1.639q.63.26 1.175.509a6.458 6.458 0 0 1 .942.517 2.463 2.463 0 0 1 .626.585 1.2 1.2 0 0 1 .23.719 1.1 1.1 0 0 1 -.144.552 1.269 1.269 0 0 1 -.435.441 2.381 2.381 0 0 1 -.726.292 4.377 4.377 0 0 1 -1.018.105 5.773 5.773 0 0 1 -1.969-.35 5.874 5.874 0 0 1 -1.805-1.045zm-5.154-7.638h4v-2.527h-11.153v2.527h3.982v11.254h3.171z"
              fill="#fff" fill-rule="evenodd"/>
    </symbol>


</svg>