<svg width="0" height="0" class="hidden">
    <symbol fill="none" xmlns="http://www.w3.org/2000/svg" viewBox="0 0 24 24" id="light-mode">
        <g>
            <path id="Vector"
                  d="M12 16C14.2091 16 16 14.2091 16 12C16 9.79086 14.2091 8 12 8C9.79086 8 8 9.79086 8 12C8 14.2091 9.79086 16 12 16Z"
                  stroke-width="2" stroke-linecap="round" stroke-linejoin="round"/>
            <path id="Vector_2" d="M12 2V4" stroke-width="2" stroke-linecap="round" stroke-linejoin="round"/>
            <path id="Vector_3" d="M12 20V22" stroke-width="2" stroke-linecap="round" stroke-linejoin="round"/>
            <path id="Vector_4" d="M4.92993 4.92969L6.33993 6.33969" stroke-width="2" stroke-linecap="round"
                  stroke-linejoin="round"/>
            <path id="Vector_5" d="M17.6599 17.6602L19.0699 19.0702" stroke-width="2" stroke-linecap="round"
                  stroke-linejoin="round"/>
            <path id="Vector_6" d="M2 12H4" stroke-width="2" stroke-linecap="round" stroke-linejoin="round"/>
            <path id="Vector_7" d="M20 12H22" stroke-width="2" stroke-linecap="round" stroke-linejoin="round"/>
            <path id="Vector_8" d="M6.33993 17.6602L4.92993 19.0702" stroke-width="2" stroke-linecap="round"
                  stroke-linejoin="round"/>
            <path id="Vector_9" d="M19.0699 4.92969L17.6599 6.33969" stroke-width="2" stroke-linecap="round"
                  stroke-linejoin="round"/>
        </g>
    </symbol>

    <symbol fill="none" xmlns="http://www.w3.org/2000/svg" viewBox="0 0 24 24" id="github">
        <g>
            <path id="Vector"
                  d="M15 22V18C15.1392 16.7473 14.78 15.4901 14 14.5C17 14.5 20 12.5 20 9C20.08 7.75 19.73 6.52 19 5.5C19.28 4.35 19.28 3.15 19 2C19 2 18 2 16 3.5C13.36 3 10.64 3 8.00004 3.5C6.00004 2 5.00004 2 5.00004 2C4.70004 3.15 4.70004 4.35 5.00004 5.5C4.27191 6.51588 3.91851 7.75279 4.00004 9C4.00004 12.5 7.00004 14.5 10 14.5C9.61004 14.99 9.32004 15.55 9.15004 16.15C8.98004 16.75 8.93004 17.38 9.00004 18V22"
                  stroke-width="2" stroke-linecap="round" stroke-linejoin="round"/>
            <path id="Vector_2" d="M9 18C4.49 20 4 16 2 16" stroke-width="2" stroke-linecap="round"
                  stroke-linejoin="round"/>
        </g>
    </symbol>

    <symbol xmlns="http://www.w3.org/2000/svg" viewBox="0 0 256 256" id="linkedin">
        <g fill="#4b5563" transform="scale(5.12,5.12)">
            <path d="M8,3.01172c-1.68739,0 -3.16452,0.47991 -4.24609,1.35352c-1.08157,0.8736 -1.74219,2.16798 -1.74219,3.58203c0,2.74357 2.45699,4.8672 5.70508,4.99414c0.09162,0.02933 0.18702,0.04512 0.2832,0.04688c1.75357,0 3.24619,-0.51401 4.3125,-1.42383c1.06631,-0.90981 1.67578,-2.22152 1.67578,-3.61719c-0.00015,-0.01824 -0.0008,-0.03648 -0.00195,-0.05469c-0.15402,-2.76089 -2.61155,-4.88086 -5.98633,-4.88086zM8,4.98828c2.60907,0 3.89588,1.28106 4.00586,2.98438c-0.0071,0.83228 -0.3293,1.53924 -0.97461,2.08984c-0.65244,0.55669 -1.65982,0.94922 -3.03125,0.94922c-2.60195,0 -4.01172,-1.41255 -4.01172,-3.06445c0,-0.82595 0.33939,-1.50502 1.00781,-2.04492c0.66843,-0.5399 1.6913,-0.91406 3.00391,-0.91406zM3,15c-0.55226,0.00006 -0.99994,0.44774 -1,1v29c0.00006,0.55226 0.44774,0.99994 1,1h10c0.55226,-0.00006 0.99994,-0.44774 1,-1v-9.33594v-19.66406c-0.00006,-0.55226 -0.44774,-0.99994 -1,-1zM18,15c-0.55226,0.00006 -0.99994,0.44774 -1,1v29c0.00006,0.55226 0.44774,0.99994 1,1h10c0.55226,-0.00006 0.99994,-0.44774 1,-1v-16v-0.25v-0.25c0,-1.94442 1.55558,-3.5 3.5,-3.5c1.94442,0 3.5,1.55558 3.5,3.5v16.5c0.00006,0.55226 0.44774,0.99994 1,1h10c0.55226,-0.00006 0.99994,-0.44774 1,-1v-17c0,-4.12652 -1.21211,-7.39555 -3.25586,-9.625c-2.04375,-2.22945 -4.89493,-3.375 -7.95703,-3.375c-3.90424,0 -6.26548,1.42608 -7.78711,2.60156v-1.60156c-0.00006,-0.55226 -0.44774,-0.99994 -1,-1zM4,17h8v18.66406v8.33594h-8zM19,17h8v2.63867c0.00013,0.41422 0.2556,0.78549 0.64242,0.93364c0.38682,0.14814 0.82494,0.0425 1.10172,-0.26567c0,0 2.9657,-3.30664 8.04297,-3.30664c2.5729,0 4.82842,0.92227 6.48242,2.72656c1.654,1.8043 2.73047,4.53496 2.73047,8.27344v16h-8v-15.5c0.00126,-0.14111 -0.02737,-0.28089 -0.08398,-0.41016c-0.22196,-2.82573 -2.53569,-5.08984 -5.41602,-5.08984c-3.02558,0 -5.5,2.47442 -5.5,5.5v0.25v0.25v15h-8z"/>
        </g>
    </symbol>
    <symbol fill="none" xmlns="http://www.w3.org/2000/svg" viewBox="0 0 24 24" id="location">
        <g>
            <path id="Vector"
                  d="M20 10C20 16 12 22 12 22C12 22 4 16 4 10C4 7.87827 4.84285 5.84344 6.34315 4.34315C7.84344 2.84285 9.87827 2 12 2C14.1217 2 16.1566 2.84285 17.6569 4.34315C19.1571 5.84344 20 7.87827 20 10Z"
                  stroke="#4B5563" stroke-width="2" stroke-linecap="round" stroke-linejoin="round"/>
            <path id="Vector_2"
                  d="M12 13C13.6569 13 15 11.6569 15 10C15 8.34315 13.6569 7 12 7C10.3431 7 9 8.34315 9 10C9 11.6569 10.3431 13 12 13Z"
                  stroke="#4B5563" stroke-width="2" stroke-linecap="round" stroke-linejoin="round"/>
        </g>
    </symbol>
    <symbol fill="none" xmlns="http://www.w3.org/2000/svg" viewBox="0 0 24 24" id="link">
        <path d="M18 13V19C18 19.5304 17.7893 20.0391 17.4142 20.4142C17.0391 20.7893 16.5304 21 16 21H5C4.46957 21 3.96086 20.7893 3.58579 20.4142C3.21071 20.0391 3 19.5304 3 19V8C3 7.46957 3.21071 6.96086 3.58579 6.58579C3.96086 6.21071 4.46957 6 5 6H11" stroke="#4B5563" stroke-width="2" stroke-linecap="round" stroke-linejoin="round"/>
        <path d="M15 3H21V9" stroke="#4B5563" stroke-width="2" stroke-linecap="round" stroke-linejoin="round"/>
        <path d="M10 14L21 3" stroke="#4B5563" stroke-width="2" stroke-linecap="round" stroke-linejoin="round"/>
    </symbol>


    <symbol xmlns="http://www.w3.org/2000/svg" viewBox="0 0 32 32" stroke="none" id="html">
        <path d="m5.902 27.201-2.247-25.201h24.69l-2.25 25.197-10.11 2.803z" fill="#e44f26"/>
        <path d="m16 27.858 8.17-2.265 1.922-21.532h-10.092z" fill="#f1662a"/>
        <path d="m16 13.407h-4.09l-.282-3.165h4.372v-3.091h-.011-7.739l.074.83.759 8.517h6.917z" fill="#ebebeb"/>
        <path d="m16 21.434-.014.004-3.442-.929-.22-2.465h-1.673-1.43l.433 4.852 6.332 1.758.014-.004z"
              fill="#ebebeb"/>
        <g fill="#fff">
            <path d="m15.989 13.407v3.091h3.806l-.358 4.009-3.448.93v3.216l6.337-1.757.046-.522.726-8.137.076-.83h-.833z"/>
            <path d="m15.989 7.151v1.92 1.164.007h7.456.01l.062-.694.141-1.567.074-.83z"/>
        </g>
    </symbol>

    <symbol xmlns="http://www.w3.org/2000/svg" viewBox="0 0 32 32" stroke="none" id="react">
        <g fill="#00d8ff">
            <circle cx="16" cy="15.974" r="2.5"/>
            <path d="m16 21.706a28.385 28.385 0 0 1 -8.88-1.2 11.3 11.3 0 0 1 -3.657-1.958 3.543 3.543 0 0 1 -1.463-2.574c0-1.653 1.816-3.273 4.858-4.333a28.755 28.755 0 0 1 9.142-1.348 28.674 28.674 0 0 1 9.022 1.324 11.376 11.376 0 0 1 3.538 1.866 3.391 3.391 0 0 1 1.44 2.491c0 1.718-2.03 3.459-5.3 4.541a28.8 28.8 0 0 1 -8.7 1.191zm0-10.217a27.948 27.948 0 0 0 -8.749 1.282c-2.8.977-4.055 2.313-4.055 3.2 0 .928 1.349 2.387 4.311 3.4a27.21 27.21 0 0 0 8.493 1.139 27.6 27.6 0 0 0 8.325-1.13c3.075-1.019 4.475-2.48 4.475-3.406a2.327 2.327 0 0 0 -1.01-1.573 10.194 10.194 0 0 0 -3.161-1.654 27.462 27.462 0 0 0 -8.629-1.258z"/>
            <path d="m10.32 28.443a2.639 2.639 0 0 1 -1.336-.328c-1.432-.826-1.928-3.208-1.327-6.373a28.755 28.755 0 0 1 3.4-8.593 28.676 28.676 0 0 1 5.653-7.154 11.376 11.376 0 0 1 3.384-2.133 3.391 3.391 0 0 1 2.878 0c1.489.858 1.982 3.486 1.287 6.859a28.806 28.806 0 0 1 -3.316 8.133 28.385 28.385 0 0 1 -5.476 7.093 11.3 11.3 0 0 1 -3.523 2.189 4.926 4.926 0 0 1 -1.624.307zm1.773-14.7a27.948 27.948 0 0 0 -3.26 8.219c-.553 2.915-.022 4.668.75 5.114.8.463 2.742.024 5.1-2.036a27.209 27.209 0 0 0 5.227-6.79 27.6 27.6 0 0 0 3.181-7.776c.654-3.175.089-5.119-.713-5.581a2.327 2.327 0 0 0 -1.868.089 10.194 10.194 0 0 0 -3.01 1.918 27.464 27.464 0 0 0 -5.4 6.849z"/>
            <path d="m21.677 28.456c-1.355 0-3.076-.82-4.868-2.361a28.756 28.756 0 0 1 -5.747-7.237 28.676 28.676 0 0 1 -3.374-8.471 11.376 11.376 0 0 1 -.158-4 3.391 3.391 0 0 1 1.434-2.487c1.487-.861 4.01.024 6.585 2.31a28.8 28.8 0 0 1 5.39 6.934 28.384 28.384 0 0 1 3.41 8.287 11.3 11.3 0 0 1 .137 4.146 3.543 3.543 0 0 1 -1.494 2.555 2.59 2.59 0 0 1 -1.315.324zm-9.58-10.2a27.949 27.949 0 0 0 5.492 6.929c2.249 1.935 4.033 2.351 4.8 1.9.8-.465 1.39-2.363.782-5.434a27.212 27.212 0 0 0 -3.271-7.911 27.6 27.6 0 0 0 -5.145-6.64c-2.424-2.152-4.39-2.633-5.191-2.169a2.327 2.327 0 0 0 -.855 1.662 10.194 10.194 0 0 0 .153 3.565 27.465 27.465 0 0 0 3.236 8.1z"/>
        </g>
    </symbol>
    <symbol xmlns="http://www.w3.org/2000/svg" viewBox="0 0 32 32" stroke="none" id="git">
        <path d="m29.472 14.753-12.225-12.225a1.8 1.8 0 0 0 -2.55 0l-2.539 2.539 3.22 3.22a2.141 2.141 0 0 1 2.712 2.73l3.1 3.1a2.143 2.143 0 1 1 -1.285 1.21l-2.895-2.895v7.617a2.141 2.141 0 1 1 -1.764-.062v-7.687a2.146 2.146 0 0 1 -1.165-2.814l-3.17-3.172-8.383 8.386a1.8 1.8 0 0 0 0 2.551l12.225 12.221a1.8 1.8 0 0 0 2.55 0l12.169-12.172a1.8 1.8 0 0 0 0-2.551"
              fill="#dd4c35"/>
        <path d="m12.158 5.067 3.22 3.22a2.141 2.141 0 0 1 2.712 2.73l3.1 3.1a2.143 2.143 0 1 1 -1.285 1.21l-2.895-2.895v7.617a2.141 2.141 0 1 1 -1.764-.062v-7.687a2.146 2.146 0 0 1 -1.165-2.814l-3.17-3.172"
              fill="#fff"/>
    </symbol>
    <symbol xmlns="http://www.w3.org/2000/svg" viewBox="0 0 32 32" stroke="none" id="styled">
        <path d="m18.05 29.6c.042-.095.148-.161.225-.241 1.175-1.232 2.36-2.453 3.519-3.7a3.2 3.2 0 0 0 1.014-2.659 5.925 5.925 0 0 0 -.143-.624c-.316.3-.61.573-.906.848-.46.428-.918.858-1.382 1.281a1.931 1.931 0 0 1 -2.148.419 1.973 1.973 0 0 1 -1.29-1.75 1.04 1.04 0 0 0 -.043-.146c-.353.3-.691.576-1.026.86l-6.963 5.9c-.048.041-.1.092-.145.132h9.283l-.014-.009c-.05-.035-.024-.219.019-.311z"
              fill="#ffcebf"/>
        <path d="m8.337 29.6a1.239 1.239 0 0 1 .295-.276l9.636-8.175q.986-.837 1.963-1.683a.523.523 0 0 0 .182-.224 5.364 5.364 0 0 0 .065-2.069c-.1.07-.154.1-.2.149-.789.706-1.574 1.418-2.367 2.12a1.762 1.762 0 0 1 -2.048.329 1.889 1.889 0 0 1 -1.08-1.807c0-.085 0-.169 0-.324-.145.106-.251.177-.35.257q-5.785 4.632-11.568 9.257c-.174.139-.382.449-.61.148s.119-.425.294-.565q6.165-4.947 12.336-9.885c.67-.537.714-.762.278-1.615l-.26.244c-.713.663-1.434 1.317-2.136 1.991a2.121 2.121 0 0 1 -3.585-1.337c-.133.1-.248.173-.357.258l-6.1 4.728a1.485 1.485 0 0 1 -.356.258.446.446 0 0 1 -.3-.015v8.561h6.256a.365.365 0 0 1 .012-.325z"
              fill="#ffcebf"/>
        <path d="m25.237 2.423c-.17.557-.335 1.115-.484 1.678a1.688 1.688 0 0 0 .9 2.09 7.122 7.122 0 0 0 3.818.8v-4.473a.73.73 0 0 1 .016-.294.666.666 0 0 1 .105-.149h-4.359c.067.078.044.215.004.348z"
              fill="#ff6196"/>
        <g fill="#ff87af">
            <path d="m16.482 12.032a2.422 2.422 0 0 1 -.5 1.376 22.671 22.671 0 0 1 -3.726 3.792 1.442 1.442 0 0 1 -1.684.2 1.393 1.393 0 0 1 -.843-1.368 1.624 1.624 0 0 1 .417-.947 35.848 35.848 0 0 1 5.019-3.993.71.71 0 0 1 .829-.034 1.041 1.041 0 0 1 .488.974z"/>
            <path d="m15.284 18.093a1.437 1.437 0 0 1 .448-1.2 38.336 38.336 0 0 1 4.87-3.813c.052-.033.1-.066.157-.1a.837.837 0 0 1 1.025.035.861.861 0 0 1 .242.979 4.39 4.39 0 0 1 -1.168 1.908c-1.105 1.1-2.252 2.164-3.4 3.22a1.124 1.124 0 0 1 -1.364.192 1.512 1.512 0 0 1 -.81-1.221z"/>
            <path d="m22.5 18.754c-.28.3-.568.586-.837.893a1.89 1.89 0 0 0 -.2.38c.148.044.321.16.441.119.611-.205 1.207-.451 1.878-.71-.146.336-.256.646-.411.93a12.189 12.189 0 0 1 -2.371 2.872q-.532.513-1.105.981a1.484 1.484 0 0 1 -2.415-.92 1.1 1.1 0 0 1 .238-.813 22.187 22.187 0 0 1 4.623-3.823.193.193 0 0 1 .065-.013z"/>
        </g>
        <path d="m24.794 14.771 1.711-7.6 1.2.281-.619 1.881c-.578 1.75-1.163 3.5-1.727 5.252-.11.324-.254.384-.565.186z"
              fill="#ff6196"/>
        <path d="m22.862 19.241c.181-.691.361-1.33.513-1.976a4.468 4.468 0 0 1 .826-1.721c.243-.319.516-.192.795-.123.258.063.323.252.334.5a2.845 2.845 0 0 1 -.588 1.907 4.8 4.8 0 0 1 -1.88 1.413z"
              fill="#ff6196"/>
        <path d="m29.993 2.894a3.623 3.623 0 0 0 -.017-.668.291.291 0 0 0 -.116-.151.381.381 0 0 0 -.152-.075c-.032-.006-.077.027-.12.074a.666.666 0 0 0 -.105.149.73.73 0 0 0 -.016.294v4.472a7.122 7.122 0 0 1 -3.818-.8 1.688 1.688 0 0 1 -.9-2.09c.149-.563.314-1.121.484-1.678.04-.133.063-.27 0-.348a.2.2 0 0 0 -.135-.064.3.3 0 0 0 -.182.064.434.434 0 0 0 -.171.19c-.2.6-.376 1.206-.529 1.818a2.148 2.148 0 0 0 -.046.737 2.339 2.339 0 0 0 1.542 2c.189.079.3.157.247.406-.073.316-.144.632-.216.949q-.735 3.222-1.462 6.447a.483.483 0 0 1 -.121.257 3.228 3.228 0 0 0 -.791.92 4.8 4.8 0 0 0 -.53 1.5.981.981 0 0 1 -.558.785c-.417.211-.8.484-1.263.768a12.639 12.639 0 0 0 -.018-1.671 1.062 1.062 0 0 1 .284-.96 4.75 4.75 0 0 0 1.258-2.194 1.294 1.294 0 0 0 -1.208-1.7 1.7 1.7 0 0 0 -.929.264c-.957.646-1.888 1.332-2.812 2.026-.547.412-1.062.868-1.592 1.3a.418.418 0 0 1 -.059-.081.842.842 0 0 0 -.059-.214c-.443-.684-.136-1.181.345-1.692a2.793 2.793 0 0 0 .772-1.951 1.568 1.568 0 0 0 -.327-1.026 1.459 1.459 0 0 0 -.438-.363 1.337 1.337 0 0 0 -1.517.162l-.279.2c-.637.456-1.282.9-1.895 1.388-.895.712-1.769 1.454-2.626 2.214-.4.353-.692.835-1.107 1.163-2.164 1.709-4.351 3.387-6.53 5.076a1.022 1.022 0 0 0 -.205.161.164.164 0 0 0 -.016.029c-.046.107-.085.284-.031.349a.141.141 0 0 0 .047.033.446.446 0 0 0 .3.015 1.485 1.485 0 0 0 .356-.258l6.1-4.728c.109-.085.224-.162.357-.258a2.121 2.121 0 0 0 3.585 1.337c.7-.674 1.423-1.328 2.136-1.991l.26-.244c.436.853.392 1.078-.278 1.615q-6.176 4.942-12.343 9.886c-.175.14-.521.267-.294.565s.436-.009.61-.148q5.786-4.621 11.564-9.254c.1-.08.205-.151.35-.257v.324a1.889 1.889 0 0 0 1.08 1.807 1.762 1.762 0 0 0 2.048-.329c.793-.7 1.578-1.414 2.367-2.12.05-.045.108-.079.2-.149a5.364 5.364 0 0 1 -.065 2.069.523.523 0 0 1 -.182.224q-.978.845-1.963 1.683l-9.632 8.176a1.239 1.239 0 0 0 -.295.276.365.365 0 0 0 -.012.321.376.376 0 0 0 .32.063.294.294 0 0 0 .116-.065c.05-.04.1-.091.145-.132l6.963-5.9c.335-.284.673-.564 1.026-.86a1.04 1.04 0 0 1 .043.146 1.973 1.973 0 0 0 1.29 1.75 1.931 1.931 0 0 0 2.148-.419c.464-.423.922-.853 1.382-1.281.3-.275.59-.551.906-.848a5.925 5.925 0 0 1 .143.624 3.2 3.2 0 0 1 -1.014 2.649c-1.159 1.248-2.344 2.469-3.519 3.7-.077.08-.183.146-.225.241s-.069.281-.019.321l.014.009a.573.573 0 0 0 .338.051.136.136 0 0 0 .081-.051c.028-.029.055-.065.082-.092.952-.984 1.909-1.963 2.854-2.954a13.982 13.982 0 0 0 1.074-1.223 3.411 3.411 0 0 0 .61-3.616.516.516 0 0 1 .074-.386c.065-.112.137-.221.211-.329a4.632 4.632 0 0 0 .587-1 7.547 7.547 0 0 1 1.339-2.4 2.792 2.792 0 0 0 .5-2.469.988.988 0 0 1 0-.489c.506-1.567 1.027-3.129 1.543-4.692q.347-1.05.69-2.094l.213-.647c.454 0 .882-.009 1.308 0 .354.01.462-.156.458-.5-.021-1.38-.013-2.759-.013-4.138zm-17.737 14.306a1.442 1.442 0 0 1 -1.684.2 1.393 1.393 0 0 1 -.843-1.368 1.624 1.624 0 0 1 .417-.947 35.848 35.848 0 0 1 5.019-3.993.852.852 0 0 1 .326-.14.656.656 0 0 1 .238 0 .763.763 0 0 1 .265.106 1.041 1.041 0 0 1 .488.975 2.422 2.422 0 0 1 -.5 1.376 22.671 22.671 0 0 1 -3.726 3.791zm5.2 1.929a1.124 1.124 0 0 1 -1.364.192 1.512 1.512 0 0 1 -.81-1.224 1.437 1.437 0 0 1 .448-1.2 38.336 38.336 0 0 1 4.87-3.813c.052-.033.1-.066.157-.1a.837.837 0 0 1 1.025.035.861.861 0 0 1 .242.979 4.39 4.39 0 0 1 -1.168 1.908c-1.103 1.102-2.25 2.163-3.398 3.219zm5.911 1.241a12.189 12.189 0 0 1 -2.367 2.868q-.532.513-1.105.981a1.484 1.484 0 0 1 -2.415-.92 1.1 1.1 0 0 1 .238-.813 22.187 22.187 0 0 1 4.623-3.823.193.193 0 0 1 .065-.013l.1.1c-.28.3-.568.586-.837.893a1.89 1.89 0 0 0 -.2.38c.148.044.321.16.441.119.483-.162.958-.35 1.467-.55l.411-.16c-.154.34-.264.65-.419.934zm1.373-2.535a4.363 4.363 0 0 1 -1.373 1.152q-.247.138-.507.258c.178-.681.356-1.312.507-1.95l.006-.026a4.468 4.468 0 0 1 .826-1.721c.243-.319.516-.192.795-.123.258.063.323.252.334.5a2.845 2.845 0 0 1 -.586 1.906zm2.34-8.5c-.578 1.75-1.163 3.5-1.727 5.252-.106.329-.25.389-.561.191l1.483-6.593.228-1.012 1.2.281c-.082.247-.161.49-.241.731z"/>
    </symbol>
    <symbol xmlns="http://www.w3.org/2000/svg" viewBox="0 0 32 32" stroke="none" id="js">
        <path d="m2 2h28v28h-28z" fill="#f5de19"/>
        <path d="m20.809 23.875a2.866 2.866 0 0 0 2.6 1.6c1.09 0 1.787-.545 1.787-1.3 0-.9-.716-1.222-1.916-1.747l-.658-.282c-1.9-.809-3.16-1.822-3.16-3.964 0-1.973 1.5-3.476 3.853-3.476a3.889 3.889 0 0 1 3.742 2.107l-2.057 1.315a1.789 1.789 0 0 0 -1.689-1.128 1.145 1.145 0 0 0 -1.259 1.128c0 .789.489 1.109 1.618 1.6l.658.282c2.236.959 3.5 1.936 3.5 4.133 0 2.369-1.861 3.667-4.36 3.667a5.055 5.055 0 0 1 -4.795-2.691zm-9.295.228c.413.733.789 1.353 1.693 1.353.864 0 1.41-.338 1.41-1.653v-8.947h2.631v8.982c0 2.724-1.6 3.964-3.929 3.964a4.085 4.085 0 0 1 -3.947-2.4z"/>
    </symbol>
    <symbol xmlns="http://www.w3.org/2000/svg" viewBox="0 0 32 32" stroke="none" id="css">
        <path d="m5.902 27.201-2.246-25.201h24.688l-2.249 25.197-10.11 2.803z" fill="#1572b6"/>
        <path d="m16 27.858 8.17-2.265 1.922-21.532h-10.092z" fill="#33a9dc"/>
        <path d="m16 13.191h4.09l.282-3.165h-4.372v-3.091h.011 7.739l-.074.829-.759 8.518h-6.917z" fill="#fff"/>
        <path d="m16.019 21.218-.014.004-3.442-.93-.22-2.465h-1.673-1.43l.433 4.853 6.331 1.758.015-.004z"
              fill="#ebebeb"/>
        <path d="m19.827 16.151-.372 4.139-3.447.93v3.216l6.336-1.756.047-.522.537-6.007z" fill="#fff"/>
        <g fill="#ebebeb">
            <path d="m16.011 6.935v1.92 1.163.008h-7.456-.01l-.062-.695-.141-1.567-.074-.829z"/>
            <path d="m16 13.191v1.92 1.163.008h-3.389-.01l-.062-.695-.14-1.567-.074-.829z"/>
        </g>
    </symbol>
    <symbol xmlns="http://www.w3.org/2000/svg" viewBox="0 0 32 32" stroke="none" id="typescript">
        <rect fill="#3178c6" height="28" rx="1.312" width="28" x="2" y="2"/>
        <path d="m18.245 23.759v3.068a6.492 6.492 0 0 0 1.764.575 11.56 11.56 0 0 0 2.146.192 9.968 9.968 0 0 0 2.088-.211 5.11 5.11 0 0 0 1.735-.7 3.542 3.542 0 0 0 1.181-1.266 4.469 4.469 0 0 0 .186-3.394 3.409 3.409 0 0 0 -.717-1.117 5.236 5.236 0 0 0 -1.123-.877 12.027 12.027 0 0 0 -1.477-.734q-.6-.249-1.08-.484a5.5 5.5 0 0 1 -.813-.479 2.089 2.089 0 0 1 -.516-.518 1.091 1.091 0 0 1 -.181-.618 1.039 1.039 0 0 1 .162-.571 1.4 1.4 0 0 1 .459-.436 2.439 2.439 0 0 1 .726-.283 4.211 4.211 0 0 1 .956-.1 5.942 5.942 0 0 1 .808.058 6.292 6.292 0 0 1 .856.177 5.994 5.994 0 0 1 .836.3 4.657 4.657 0 0 1 .751.422v-2.863a7.509 7.509 0 0 0 -1.525-.4 12.426 12.426 0 0 0 -1.9-.129 8.767 8.767 0 0 0 -2.064.235 5.239 5.239 0 0 0 -1.716.733 3.655 3.655 0 0 0 -1.171 1.271 3.731 3.731 0 0 0 -.431 1.845 3.588 3.588 0 0 0 .789 2.34 6 6 0 0 0 2.395 1.639q.63.26 1.175.509a6.458 6.458 0 0 1 .942.517 2.463 2.463 0 0 1 .626.585 1.2 1.2 0 0 1 .23.719 1.1 1.1 0 0 1 -.144.552 1.269 1.269 0 0 1 -.435.441 2.381 2.381 0 0 1 -.726.292 4.377 4.377 0 0 1 -1.018.105 5.773 5.773 0 0 1 -1.969-.35 5.874 5.874 0 0 1 -1.805-1.045zm-5.154-7.638h4v-2.527h-11.153v2.527h3.982v11.254h3.171z"
              fill="#fff" fill-rule="evenodd"/>
    </symbol>


    <symbol fill="none" xmlns="http://www.w3.org/2000/svg" viewBox="0 0 33 36" stroke="none" id="codewars">
        <path fill-rule="evenodd" clip-rule="evenodd"
              d="M26.0659 23.848C25.841 24.0479 25.5661 24.1479 25.2662 24.1229C25.3912 24.4977 25.2912 24.9226 25.0163 25.1975C24.7414 25.4724 24.3166 25.5724 23.9417 25.4224C23.9167 25.7223 23.7168 25.9972 23.4419 26.1222C23.142 26.2471 22.7921 26.1971 22.5422 25.9972C22.4172 26.2721 22.1173 26.4471 21.8174 26.4221C21.8174 26.597 21.7674 26.747 21.6675 26.8969C21.3426 27.6217 20.5179 27.9715 19.7681 27.6716C19.7931 28.3464 19.2683 28.9212 18.5686 28.9462C18.2437 28.9462 17.9188 28.8462 17.6689 28.5963C17.4939 28.9962 17.144 29.2461 16.7192 29.2711C16.2943 29.2961 15.8945 29.0712 15.6946 28.6963C15.4446 29.0212 15.0448 29.1711 14.6449 29.0712C14.2451 28.9712 13.9452 28.6463 13.8702 28.2714C13.5703 28.3964 13.2454 28.3714 12.9955 28.1715C12.7456 27.9715 12.6206 27.6716 12.6706 27.3467L12.3457 27.3218C11.9958 27.2218 11.7959 26.8469 11.8709 26.497C11.646 26.722 11.3711 26.8219 11.0462 26.8469C10.2215 26.9219 9.52169 26.3471 9.44672 25.5724C9.02187 25.8223 8.49705 25.7723 8.09719 25.4724C7.69733 25.1725 7.52239 24.6727 7.64735 24.1978C7.04755 24.2728 6.49774 23.823 6.44776 23.2232C6.42277 22.9733 6.49774 22.6984 6.6227 22.4984C6.07289 22.4235 5.67303 21.8986 5.748 21.3488C5.773 21.0989 5.92294 20.849 6.12287 20.6991C5.87296 20.4991 5.748 20.1992 5.79799 19.8743C5.84797 19.5495 6.07289 19.2995 6.37279 19.1996C6.14787 18.9247 6.17286 18.4998 6.42277 18.2499H6.44776C6.27282 18.1499 6.12287 18.025 5.99792 17.85C5.52308 17.2003 5.64804 16.3006 6.27282 15.8008C5.84797 15.5508 5.59806 15.076 5.67303 14.6012C5.72301 14.1014 6.07289 13.7015 6.54773 13.5515C6.29781 13.2017 6.27282 12.7518 6.47275 12.377C6.67268 12.0021 7.09754 11.7772 7.52239 11.8271C7.37244 11.4523 7.4724 11.0274 7.74731 10.7525C8.02221 10.4776 8.44707 10.3776 8.82194 10.5276C8.84693 10.2277 9.04686 9.95279 9.34676 9.82784C9.64665 9.70288 9.97154 9.75286 10.2215 9.95279C10.3464 9.6529 10.6463 9.47796 10.9462 9.50295L10.9712 9.57792C10.9712 9.10309 11.2211 8.65324 11.621 8.37834C12.0208 8.10344 12.5207 8.05345 12.9705 8.22839L13.0455 7.80354C13.1704 7.40368 13.5203 7.10378 13.9202 7.00382C14.32 6.90385 14.7449 7.02881 15.0698 7.30371C15.2197 6.90385 15.5946 6.62895 16.0444 6.60396C16.4693 6.57897 16.8691 6.80389 17.0691 7.20375C17.319 6.87886 17.7188 6.72891 18.1187 6.82888C18.5186 6.92884 18.8185 7.25373 18.8934 7.6286C19.1933 7.50364 19.5182 7.55363 19.7681 7.75356C20.018 7.95349 20.143 8.27838 20.068 8.57827C20.4429 8.5033 20.8178 8.75321 20.8927 9.12808C20.9177 9.22804 20.9177 9.30302 20.8927 9.40298C21.1177 9.17806 21.3926 9.0781 21.7175 9.02811C22.5422 8.97813 23.2169 9.55293 23.2919 10.3277C23.7168 10.0778 24.2666 10.1027 24.6664 10.4026C25.0663 10.7025 25.2412 11.2274 25.1163 11.7022C25.7161 11.6272 26.2659 12.0771 26.3159 12.6768C26.3409 12.9268 26.2659 13.2017 26.1409 13.4016C26.5408 13.4766 26.8657 13.7515 26.9656 14.1513C27.0656 14.5512 26.9406 14.9511 26.6158 15.201C26.7907 15.3259 26.9157 15.5259 26.9656 15.7258C27.0156 16.1506 26.7907 16.5505 26.3908 16.7254C26.6158 17.0003 26.5908 17.4252 26.3409 17.6751C26.7657 17.925 27.0406 18.3749 27.0656 18.8497C27.0906 19.3495 26.8657 19.7994 26.4908 20.0993C26.6158 20.1742 26.7157 20.2492 26.8157 20.3742C27.0906 20.6991 27.1656 21.1239 27.0656 21.5238C26.9406 21.9236 26.6407 22.2235 26.2409 22.3485C26.5658 22.8483 26.4908 23.4981 26.0659 23.848ZM29.7897 6.80389L19.3933 0.80597C17.5439 -0.268657 15.2447 -0.268657 13.3953 0.80597L2.99896 6.80389C1.1496 7.87851 0 9.85283 0 12.0021V23.9979C0 26.1472 1.1496 28.1215 2.99896 29.1961L13.3953 35.194C15.2447 36.2687 17.5439 36.2687 19.3933 35.194L29.7897 29.1961C31.639 28.1215 32.7886 26.1472 32.7886 23.9979V11.9771C32.7886 9.85283 31.639 7.87851 29.7897 6.80389ZM8.39709 16.1509C8.69699 16.5507 8.77196 17.0755 8.59702 17.5504C9.19681 17.6004 9.67165 18.0752 9.72163 18.675C10.2714 18.55 10.8212 18.8499 11.0212 19.3498C11.471 19.0249 12.1208 19.0998 12.4457 19.5747L12.4957 19.6247L12.6206 19.4997C12.8955 19.2498 13.3204 19.2248 13.6453 19.4497C13.6953 19.2998 13.7702 19.1748 13.8702 19.0749C14.1451 18.8499 14.495 18.8249 14.7699 19.0249C14.8199 18.8499 14.9698 18.725 15.1447 18.7C15.0198 18.5001 14.9698 18.2751 14.9448 18.0502V18.0752C14.6949 18.1502 14.445 18.0252 14.37 17.8003C14.37 17.7753 14.37 17.7753 14.345 17.7503C14.1201 17.8753 13.8452 17.9003 13.6203 17.7753C13.3954 17.6503 13.2454 17.4254 13.2204 17.1755C13.0705 17.2255 12.8455 17.2505 12.6706 17.1755C12.2458 17.0256 12.0208 16.5757 12.1458 16.1509C11.7709 16.1759 11.421 15.9759 11.2211 15.651C11.0212 15.3262 11.0462 14.9263 11.2461 14.6014C10.8462 14.5014 10.5214 14.1516 10.4464 13.7517C10.3464 13.3268 10.4964 12.902 10.8212 12.6521C10.3464 12.2272 10.2964 11.5025 10.6713 11.0027C10.642 11.0027 10.6213 10.9941 10.6042 10.987C10.592 10.982 10.5817 10.9777 10.5713 10.9777C10.5214 11.2026 10.3464 11.4025 10.1465 11.5025C9.94655 11.6274 9.69664 11.6274 9.47172 11.5775C9.44673 12.1023 8.99688 12.5271 8.47206 12.5521C8.62201 12.827 8.64701 13.1769 8.52205 13.4768C8.39709 13.7767 8.14718 14.0016 7.84728 14.1016C8.24714 14.6014 8.22215 15.3012 7.77231 15.751C7.99723 15.751 8.22215 15.901 8.39709 16.1509ZM15.7695 22.1738C15.1947 22.2237 14.7948 22.7486 14.8698 23.2984C14.32 23.1984 13.7702 23.5483 13.5952 24.0481C13.0454 23.7982 12.4207 23.9731 12.0708 24.473L12.0458 24.448C11.546 23.8232 10.6213 23.7482 9.99649 24.248C9.84655 23.6482 9.22176 23.2484 8.59698 23.3483C8.64696 23.0485 8.57199 22.7236 8.37206 22.4736C8.17213 22.2237 7.89722 22.0738 7.57234 22.0488C7.84724 21.599 7.69729 20.9992 7.24745 20.6993C7.44738 20.4993 7.57234 20.1994 7.49736 19.8995C7.47237 19.7246 7.3724 19.5497 7.24745 19.4247C7.29743 19.4247 7.34741 19.3997 7.3974 19.3747C7.6723 19.8995 8.29708 20.1495 8.87188 19.9745C8.92187 20.3994 9.22176 20.7243 9.59663 20.8742C9.9715 21.0242 10.3964 20.9492 10.7212 20.6743C10.8712 20.9492 11.1211 21.1741 11.446 21.2241C11.7709 21.2741 12.0958 21.1741 12.3207 20.9742C12.3957 20.9242 12.5206 20.7992 12.5456 20.6993C12.7455 20.9492 13.0704 21.0242 13.3703 20.9492C13.6702 20.8742 13.8951 20.6243 13.9701 20.3244C14.22 20.4494 14.4949 20.4743 14.7448 20.3244C14.9948 20.1744 15.1197 19.9245 15.1197 19.6496C15.2447 19.6996 15.4196 19.6496 15.5196 19.5497C15.6195 19.4747 15.6695 19.3497 15.6945 19.2498C15.9194 19.3747 16.1693 19.4497 16.4193 19.4497C16.3693 19.5247 16.3693 19.6246 16.3693 19.6996C16.3943 19.7996 16.4193 19.8995 16.4942 19.9495C16.1943 20.0995 16.0444 20.4244 16.0944 20.7493C16.0944 20.8742 16.1943 21.0242 16.2943 21.1241C15.9444 21.2491 15.7445 21.6489 15.8195 22.0238L15.8445 22.1738H15.7695ZM17.9187 12.702C17.9437 12.9769 17.8688 13.2768 17.6688 13.4768C17.4689 13.7017 17.219 13.8266 16.9191 13.8266L16.9441 13.9766C17.0191 14.3515 16.8441 14.7513 16.4942 14.8763H16.4693C16.7691 15.1762 16.7691 15.651 16.4693 15.9259C16.4193 15.9759 16.3693 16.0259 16.2943 16.0509C16.3693 16.1508 16.4193 16.2508 16.3943 16.3758C16.6442 16.3758 16.9191 16.4507 17.144 16.6007C17.244 16.4007 17.4439 16.3008 17.6688 16.3508C17.6688 16.0759 17.7938 15.8259 18.0437 15.676C18.2936 15.526 18.5685 15.551 18.8184 15.676C18.8184 15.5011 18.9184 15.3511 19.0683 15.2262C19.4432 14.9263 19.943 14.9512 20.218 15.3011C20.4929 14.8013 21.0926 14.6264 21.5925 14.8763C21.7674 14.9762 21.9174 15.1262 22.0173 15.3011C22.3422 15.0262 22.7671 14.9512 23.1419 15.1012C23.5168 15.2511 23.8167 15.576 23.8667 16.0009C24.4415 15.801 25.0663 16.0509 25.3412 16.6007L25.4661 16.5257C25.1163 16.2008 25.0913 15.651 25.4161 15.3011C25.4257 15.2916 25.4316 15.282 25.4366 15.2739C25.4448 15.2607 25.4507 15.2511 25.4661 15.2511C25.0163 14.9512 24.8663 14.3515 25.1412 13.9016C24.8164 13.9016 24.5165 13.7517 24.3165 13.4768C24.1166 13.2268 24.0416 12.902 24.0916 12.5771C23.4668 12.677 22.842 12.2772 22.6921 11.6774C22.0673 12.1772 21.1426 12.0772 20.6428 11.4525C20.2929 11.9523 19.6432 12.1272 19.0933 11.8523C18.9934 12.4271 18.4686 12.777 17.9187 12.702ZM12.4707 14.1515C12.8206 13.7017 12.7706 13.0519 12.3707 12.6521C12.8706 12.2772 13.0205 11.6274 12.7706 11.1026C13.5703 10.9527 14.0951 10.2029 13.9702 9.4032C14.595 9.57814 15.2197 9.20327 15.4197 8.60348C15.6696 8.80341 15.9945 8.87838 16.2944 8.8284C16.5943 8.77841 16.8692 8.60348 17.0441 8.32857C17.344 8.77841 17.9188 8.92836 18.3936 8.65346C18.4686 8.95335 18.6436 9.22826 18.9684 9.32822C19.1434 9.37821 19.3433 9.35321 19.5182 9.27824L19.5432 9.55314C19.0434 9.62812 18.6186 10.003 18.5186 10.5028C18.1187 10.3529 17.6939 10.4028 17.369 10.6778C17.0441 10.9527 16.8942 11.3775 16.9691 11.7774C16.5943 11.7774 16.2444 11.9523 16.0445 12.2772C15.8695 12.6021 15.8445 13.0019 16.0445 13.3268C15.7446 13.4018 15.4946 13.6267 15.4197 13.9266C15.3447 14.2265 15.4447 14.5514 15.6696 14.7513C15.4447 14.8763 15.2947 15.1262 15.2947 15.3761C15.2947 15.651 15.4197 15.876 15.6446 16.0259C15.5696 16.1509 15.4946 16.3008 15.5196 16.4508L15.5946 16.6507C15.3947 16.8006 15.2197 17.0006 15.0948 17.2255C14.9698 17.1505 14.8199 17.1005 14.6699 17.1505C14.6949 16.9006 14.595 16.6507 14.395 16.5007C14.1951 16.3508 13.9202 16.3008 13.6953 16.3758C13.7453 16.0259 13.4953 15.676 13.1205 15.5761L12.9705 15.5261C13.0955 15.2762 13.1205 15.0013 13.0205 14.7263C12.9205 14.4764 12.7206 14.2515 12.4707 14.1515ZM24.2666 22.5986C24.3915 22.2987 24.6414 22.0738 24.9413 21.9738C24.5415 21.474 24.5665 20.7742 25.0163 20.3244C24.7414 20.2494 24.5165 20.0745 24.3665 19.8496H24.3416C24.0417 19.4497 23.9667 18.9249 24.1416 18.4501C23.5418 18.4001 23.067 17.9252 23.017 17.3254C22.4922 17.4504 21.9424 17.1505 21.7425 16.6507C21.5175 16.8256 21.2176 16.9006 20.9427 16.8506C20.6678 16.8006 20.4179 16.6257 20.268 16.3758L20.143 16.5007C19.8681 16.7506 19.4433 16.7756 19.1434 16.5757C19.0934 16.7257 18.9934 16.8506 18.8934 16.9506C18.6435 17.1755 18.2687 17.2005 17.9938 17.0006C17.9688 17.1255 17.8688 17.2255 17.7438 17.3005C17.8438 17.5004 17.9188 17.7503 17.9188 18.0002H18.1187C18.2936 18.0502 18.3936 18.1751 18.4186 18.3251C18.6435 18.1751 18.9184 18.1751 19.1683 18.3001C19.3933 18.4251 19.5682 18.65 19.5682 18.9249C19.7431 18.8499 19.9431 18.8499 20.118 18.9249C20.5429 19.0748 20.7678 19.5247 20.6428 19.9495C21.0427 19.8996 21.4426 20.0995 21.6425 20.4494C21.8424 20.7992 21.8174 21.2241 21.5925 21.549C21.9674 21.6739 22.2423 21.9988 22.3173 22.3987C22.3922 22.7985 22.2673 23.1984 21.9674 23.4733C22.4422 23.8982 22.4922 24.6229 22.1173 25.1227L22.2423 25.1727C22.2923 24.9478 22.4422 24.7479 22.6671 24.6479C22.8671 24.5229 23.117 24.498 23.3419 24.5729C23.3669 24.0231 23.8167 23.5983 24.3416 23.5983C24.1666 23.2484 24.1666 22.8985 24.2666 22.5986ZM20.318 21.8489C19.9681 22.2987 20.0181 22.9485 20.4179 23.3484C19.9431 23.6982 19.7681 24.348 19.9931 24.8728C19.1933 25.0228 18.6685 25.7725 18.7935 26.5722C18.1937 26.4223 17.5189 26.7472 17.344 27.372C17.0941 27.172 16.7942 27.0721 16.4693 27.1221C16.1694 27.172 15.8945 27.347 15.7196 27.6219C15.4197 27.172 14.8449 27.0221 14.37 27.297C14.32 27.0471 14.1701 26.8471 13.9702 26.7222C13.7702 26.5972 13.4953 26.5722 13.2704 26.6472V26.6722L13.2454 26.3973C13.7452 26.3223 14.1701 25.9475 14.2701 25.4476C14.47 25.5226 14.6699 25.5226 14.8698 25.4976C15.4946 25.3977 15.8945 24.8229 15.7945 24.1981C16.0944 24.1981 16.4193 24.0731 16.6192 23.8482C16.8442 23.5983 16.9191 23.2734 16.8691 22.9735C16.8691 22.8548 16.8379 22.7831 16.8 22.6965C16.79 22.6736 16.7796 22.6497 16.7692 22.6236C17.0691 22.5486 17.294 22.3237 17.369 22.0238C17.4439 21.7239 17.344 21.399 17.1191 21.1991C17.219 21.1491 17.294 21.0492 17.369 20.9492C17.5939 20.5993 17.4689 20.1495 17.1191 19.9246L17.169 19.8746C17.319 19.6746 17.319 19.3997 17.1191 19.2248C17.344 19.0998 17.5439 18.9249 17.6689 18.7C17.7688 18.7999 17.9188 18.8499 18.0687 18.8249C18.0687 19.0749 18.1687 19.2998 18.3686 19.4497C18.5686 19.5997 18.8435 19.6497 19.0684 19.5747V19.5997C19.0434 19.9495 19.2683 20.2994 19.6432 20.3994L19.7931 20.4494C19.6682 20.7243 19.6432 21.0242 19.7432 21.2741C19.8431 21.524 20.043 21.7489 20.318 21.8489Z"
              fill="#F05656"/>
    </symbol>

    <symbol xmlns="http://www.w3.org/2000/svg" viewBox="0 0 700.08435 482.89237" stroke="none" id="freecodecamp">
        <path id="path1" transform="translate(0,-569.46988)"
              d="m 117.51293,1051.6318 c -12.14837,-2.9002 -29.728148,-18.1522 -49.221868,-42.7042 c -39.570999,-49.83893 -61.0574994,-105.73952 -67.38493937,-175.31253 c -1.21782,-13.3906 -1.20559,-47.2689 0.0216,-59.6663 c 5.78590997,-58.45296 26.23995037,-108.79162 63.77079937,-156.94389 c 11.49299,-14.74558 30.54062,-34.06267 39.663438,-40.22459 c 12.90812,-8.71862 21.03329,-9.42362 28.83032,-2.50149 c 3.18001,2.82319 3.91138,4.13656 4.31868,7.75537 c 0.7669,6.81375 -2.72585,12.13801 -18.96746,28.91356 c -22.696898,23.44307 -33.167868,36.49307 -44.766288,55.79234 c -26.338069,43.82543 -37.608569,89.91434 -35.992979,147.1875 c 0.86072,30.51293 4.12574,53.0042 11.32601,78.01991 c 6.48504,22.53075 14.26864,40.69688 25.924939,60.50619 c 11.70369,19.8898 21.53849,32.4739 41.204948,52.72393 c 17.25351,17.7655 21.53909,23.9358 21.53909,31.0118 c 0,7.0391 -4.96843,13.4053 -11.98224,15.3532 c -3.87451,1.0761 -4.13811,1.0789 -8.284,0.089 z m 455.44089,0.2665 c -3.6719,-0.7795 -10.2381,-7.8414 -10.9785,-11.8072 c -1.1931,-6.3904 2.6087,-12.0821 20.332,-30.4391 c 8.7214,-9.0333 19.4526,-20.90733 23.8469,-26.38683 c 32.1524,-40.09154 50.0156,-84.70127 54.7815,-136.80559 c 1.4691,-16.06232 0.7096,-57.4481 -1.3391,-72.96716 c -4.2915,-32.50699 -12.2125,-59.101 -25.932,-87.06485 c -13.128,-26.75819 -26.7099,-45.73656 -49.6485,-69.375 c -15.4037,-15.87371 -19.9446,-21.67017 -21.493,-27.43577 c -1.5177,-5.65161 -0.4267,-9.8484 3.8122,-14.66398 c 5.8143,-6.60538 12.4561,-7.1946 22.8501,-2.02712 c 12.5814,6.25493 28.8861,22.58937 47.8125,47.89962 c 38.0781,50.92197 57.7171,106.94211 62.4372,178.10225 c 4.0104,60.46144 -10.6568,121.66332 -41.3038,172.3482 c -21.1547,34.98623 -53.4295,70.83673 -70.6155,78.43883 c -4.4918,1.987 -10.9367,2.9534 -14.562,2.1837 z m -380.08337,-36.8677 c -10.28745,-3.1184 -16.25136,-13.4004 -13.77065,-23.74113 c 1.53405,-6.3947 7.95351,-12.9693 14.1986,-14.5418 c 6.29118,-1.5842 331.73282,-1.5842 338.02402,0 c 6.4375,1.6209 12.762,8.2164 14.1687,14.7756 c 1.8436,8.59633 -2.0197,17.39503 -9.5253,21.69413 l -3.9679,2.2727 l -168.28125,0.159 c -92.55469,0.088 -169.43548,-0.1909 -170.84622,-0.6185 z m 128.18997,-79.10931 c -31.25226,-11.36715 -57.25414,-33.51988 -70.56464,-60.11872 c -7.39978,-14.78724 -11.69506,-32.69699 -11.69168,-48.75 c 0.005,-21.70289 8.49132,-42.38356 34.34641,-83.69612 c 19.25748,-30.77058 22.53856,-36.37804 28.2009,-48.19613 c 7.53515,-15.72687 10.01962,-25.06764 10.17751,-38.264 c 0.15089,-12.61133 -1.7391,-20.09344 -7.5478,-29.88024 c -4.12329,-6.94714 -13.3994,-17.40446 -17.16656,-19.35253 c -6.13981,-3.17502 -7.41241,-7.48767 -3.05249,-10.3444 c 6.89544,-4.51807 25.73535,-1.65272 43.04416,6.54654 c 19.58504,9.27752 34.01993,22.59896 43.41986,40.07061 c 7.2448,13.46592 10.1658,23.78505 15.07964,53.27252 c 5.45287,32.72211 10.85838,43.10388 21.78902,41.84779 c 5.79215,-0.66561 9.40698,-2.86376 11.84605,-7.20349 c 3.88524,-6.91287 2.21986,-16.37519 -5.638,-32.03379 c -6.42005,-12.79345 -6.0227,-16.65931 1.50762,-14.66788 c 3.90047,1.03149 16.5567,11.36919 25.31937,20.68104 c 21.92392,23.29795 32.83524,44.46488 38.0824,73.87633 c 2.75216,15.42644 2.98126,41.00657 0.48698,54.375 c -3.14675,16.86545 -9.52427,32.78449 -18.58816,46.39825 c -10.10669,15.18002 -31.19068,34.38621 -46.51897,42.37585 c -6.92209,3.60805 -9.32469,3.82678 -12.71769,1.15785 c -4.22027,-3.31967 -3.32896,-5.62767 6.0003,-15.53749 c 14.01697,-14.88926 21.17338,-25.47392 25.32527,-37.45728 c 6.40578,-18.48865 3.21723,-44.26491 -7.50796,-60.69426 c -4.44225,-6.80483 -10.95335,-12.80542 -13.89487,-12.80542 c -1.6103,0 -1.34313,2.12472 1.64246,13.06159 c 1.04617,3.83232 1.90212,8.51603 1.90212,10.40824 c 0,10.00778 -14.12604,17.26255 -26.56914,13.64525 c -10.11201,-2.93965 -14.56941,-12.11029 -13.23012,-27.21961 c 0.41387,-4.66907 0.78411,-13.15351 0.82275,-18.8543 c 0.0682,-10.05201 -0.0289,-10.56052 -3.21099,-16.83594 c -6.2022,-12.2312 -20.54678,-24.83023 -28.27035,-24.83023 c -3.33075,0 -3.60465,0.20129 -3.60465,2.64908 c 0,1.64378 0.92404,3.51158 2.43498,4.92188 c 8.00106,7.46811 9.50696,22.7712 3.57025,36.28131 c -3.66922,8.35 -7.80677,13.07915 -21.93727,25.07385 c -18.59248,15.78227 -24.58362,23.29724 -28.29903,35.49682 c -1.71871,5.64339 -1.89614,7.93993 -1.4124,18.28125 c 0.81216,17.36174 4.35055,28.87034 12.62068,41.04864 c 6.34961,9.35021 13.78457,15.28248 23.88216,19.05527 c 4.85612,1.81441 5.39063,2.28304 5.39063,4.72627 c 0,2.83211 -2.15357,4.69364 -5.329,4.60634 c -0.93624,-0.026 -5.49913,-1.42784 -10.13975,-3.11574 z"/>
    </symbol>

    <symbol fill="none" xmlns="http://www.w3.org/2000/svg" viewBox="0 0 91 34" stroke="none" id="udemy">
        <path d="M14.05 8.112L7.024 4.056 0 8.112V4.056L7.025 0l7.026 4.056v4.056h-.001z" fill="#A435F0"/>
        <path d="M0 11.518h3.68v8.941c0 2.31 1.725 3.436 3.345 3.436 1.634 0 3.346-1.156 3.346-3.467v-8.91h3.68v9.154c0 2.128-.669 3.77-2.007 4.896-1.339 1.125-3.011 1.673-5.05 1.673-2.037 0-3.71-.547-5.017-1.673C.669 24.443 0 22.862 0 20.763v-9.245zM45.866 22.63c-1.114.992-2.383 1.478-3.83 1.478-2.64 0-4.41-1.504-4.61-3.833h11.89s.08-.752.08-1.458c0-2.19-.7-4.015-2.13-5.505-1.398-1.49-3.222-2.22-5.443-2.22-2.341 0-4.258.73-5.779 2.22-1.49 1.49-2.25 3.436-2.25 5.87v.12c0 2.403.76 4.319 2.25 5.749 1.49 1.429 3.467 2.159 5.87 2.159 2.794 0 5.017-1.102 6.685-3.002l-2.733-1.578zm-6.994-7.463c.82-.639 1.825-.973 2.95-.973 1.064 0 1.946.334 2.707 1.004.726.61 1.118 1.359 1.152 2.22H37.52c.118-.89.568-1.64 1.353-2.25zM82.91 29.276C81.417 32.801 79.855 34 77.46 34H75.8v-3.262h1.342c.824 0 1.59-.31 2.32-1.994l.73-1.686-6.296-15.54h3.741l4.471 11.192 4.593-11.192h3.74l-7.53 17.758zM28.377 5.649v7.257c-1.206-1.08-3.082-1.723-4.896-1.723-2.16 0-3.984.76-5.474 2.31-1.46 1.521-2.19 3.406-2.19 5.687 0 2.282.73 4.167 2.19 5.718 1.49 1.521 3.315 2.282 5.474 2.282 2.49 0 4.064-.979 4.896-1.746v1.411h3.65V5.65h-3.65zm-1.095 16.878c-.882.882-2.007 1.339-3.315 1.339-1.308 0-2.372-.457-3.254-1.339-.85-.882-1.277-2.007-1.277-3.345 0-1.339.426-2.464 1.277-3.346.882-.882 1.946-1.338 3.254-1.338s2.433.456 3.315 1.338c.912.882 1.37 2.007 1.37 3.346 0 1.338-.458 2.463-1.37 3.345zM68.222 11.214c-2.772 0-4.213 1.15-5.2 2.258-.395-.753-1.507-2.258-4.105-2.258-2.196 0-3.49 1.11-4.136 1.9V11.52h-3.618v15.327h3.618v-8.82c0-2.068 1.278-3.558 2.98-3.558 1.735 0 2.738 1.308 2.738 3.406v8.971h3.619v-8.82c0-2.098 1.246-3.558 3.04-3.558 1.734 0 2.737 1.308 2.737 3.405v8.972h3.65v-9.488c0-3.996-2.148-6.142-5.323-6.142z"
              fill="#000"/>
    </symbol>

    <symbol xmlns="http://www.w3.org/2000/svg" viewBox="0 0 552.85 198.67" id="rsschool">
        <title>rs_school</title>
        <g>
            <g>
                <path d="M275.36 61.37l26.29-1.65q.86 6.41 3.48 9.76 4.28 5.43 12.2 5.43 5.91 0 9.12-2.77a8.34 8.34 0 0 0 3.2-6.44 8.18 8.18 0 0 0-3-6.22q-3-2.74-14.15-5.19-18.18-4.08-25.93-10.86a21.84 21.84 0 0 1-7.81-17.26 23.44 23.44 0 0 1 4-13 26.47 26.47 0 0 1 12-9.64q8-3.51 22-3.51 17.14 0 26.14 6.38t10.71 20.28l-26.05 1.52q-1-6-4.36-8.78t-9.2-2.77c-3.21 0-5.63.69-7.25 2.05a6.25 6.25 0 0 0-2.44 5 5 5 0 0 0 2 3.84q1.95 1.77 9.27 3.3 18.12 3.9 26 7.9t11.4 9.91a25.12 25.12 0 0 1 3.57 13.24 28.37 28.37 0 0 1-4.75 15.86 29.83 29.83 0 0 1-13.3 11q-8.55 3.75-21.54 3.75-22.81 0-31.6-8.78t-10-22.35zM6.27 91V1.53h46.06q12.81 0 19.58 2.19a20.93 20.93 0 0 1 10.92 8.14A24.75 24.75 0 0 1 87 26.35a24.8 24.8 0 0 1-3.2 12.84A24.91 24.91 0 0 1 75.07 48a33.63 33.63 0 0 1-9.7 3.54 27.79 27.79 0 0 1 7.19 3.29A27.79 27.79 0 0 1 77 59.49 35.16 35.16 0 0 1 80.85 65l13.38 26H63L48.24 63.63q-2.81-5.31-5-6.9a11.63 11.63 0 0 0-6.78-2.07H34V91zM34 37.76h11.68A41 41 0 0 0 53 36.54a7.3 7.3 0 0 0 4.48-2.81 8.24 8.24 0 0 0 1.74-5.18 8.23 8.23 0 0 0-2.75-6.65q-2.74-2.32-10.31-2.32H34zM0 167.56l26.29-1.64q.86 6.41 3.48 9.76Q34 181.11 42 181.11q5.91 0 9.12-2.78a8.34 8.34 0 0 0 3.2-6.44 8.2 8.2 0 0 0-3-6.22q-3-2.74-14.15-5.18-18.18-4.1-25.93-10.86a21.87 21.87 0 0 1-7.81-17.27 23.49 23.49 0 0 1 4-13 26.47 26.47 0 0 1 12-9.64q8-3.51 22-3.51 17.14 0 26.14 6.38t10.71 20.28l-26 1.53q-1-6-4.36-8.79t-9.19-2.74q-4.81 0-7.25 2a6.25 6.25 0 0 0-2.44 5 5 5 0 0 0 2 3.85q1.95 1.77 9.27 3.29 18.12 3.9 26 7.9t11.4 9.91a25.15 25.15 0 0 1 3.57 13.24 28.35 28.35 0 0 1-4.75 15.86 29.83 29.83 0 0 1-13.3 11q-8.55 3.75-21.54 3.75-22.81 0-31.6-8.78T0 167.56zm163-7.01l24.22 7.32a44.72 44.72 0 0 1-7.69 17 33.46 33.46 0 0 1-13 10.31q-7.78 3.47-19.8 3.47-14.58 0-23.82-4.23t-16-14.91q-6.72-10.67-6.71-27.31 0-22.18 11.8-34.11t33.4-11.92q16.91 0 26.57 6.84t14.36 21l-24.4 5.43a21 21 0 0 0-2.68-6 16 16 0 0 0-5.67-4.88 16.31 16.31 0 0 0-7.51-1.71q-9.39 0-14.39 7.56-3.8 5.61-3.79 17.61 0 14.86 4.52 20.38t12.69 5.51q7.92 0 12-4.45t5.9-12.91zm45.51-52.83h27.63V139h30.2v-31.28h27.75v89.43h-27.75V161h-30.2v36.18h-27.63zm102.78 44.77q0-21.88 12.2-34.1t34-12.2q22.32 0 34.4 12T404 151.76q0 15.69-5.28 25.72a37.54 37.54 0 0 1-15.25 15.61q-10 5.58-24.86 5.58-15.12 0-25-4.82a37.59 37.59 0 0 1-16.07-15.25q-6.26-10.42-6.25-26.11zm27.63.13q0 13.55 5 19.46t13.7 5.91q8.91 0 13.79-5.79t4.88-20.8q0-12.63-5.1-18.46t-13.82-5.82A16.78 16.78 0 0 0 344 133q-5.07 6-5.08 19.62z"/>
                <path d="M392.28 152.49q0-21.88 12.2-34.1t34-12.2q22.34 0 34.41 12t12.07 33.58q0 15.69-5.27 25.72a37.6 37.6 0 0 1-15.25 15.61q-10 5.58-24.86 5.58-15.13 0-25-4.82a37.67 37.67 0 0 1-16.08-15.25q-6.22-10.43-6.22-26.12zm27.64.13q0 13.55 5 19.46t13.72 5.92q8.91 0 13.79-5.79t4.88-20.8q0-12.63-5.09-18.46t-13.82-5.82A16.77 16.77 0 0 0 425 133q-5.09 6-5.08 19.62z"/>
                <path d="M482.08 107.72h27.64v67.41h43.13v22h-70.77z"/>
            </g>
        </g>
    </symbol>

    <symbol fill="none" xmlns="http://www.w3.org/2000/svg" viewBox="0 0 209 48" id="itincubator">
        <path fill-rule="evenodd" clip-rule="evenodd"
              d="M55.3101 35.4007V14.1751H57.5744L69.5611 30.6509V14.1751H72.1451V35.4007H69.8318L57.8937 18.9091V35.4007H55.3101ZM104.958 30.3661V33.79C103.893 34.4371 102.805 34.9294 101.699 35.266C100.594 35.6026 99.4974 35.7736 98.4144 35.7736C97.3709 35.7736 96.3763 35.6132 95.4311 35.2972C94.4851 34.976 93.593 34.5047 92.7495 33.8778C91.3998 32.8471 90.3477 31.5264 89.597 29.926C88.8467 28.3201 88.4695 26.5799 88.4695 24.6947C88.4695 23.2701 88.7181 21.8874 89.211 20.5458C89.7039 19.2097 90.4097 18.0336 91.3198 17.0341C92.2919 15.962 93.3801 15.1592 94.5831 14.631C95.7906 14.0973 97.1266 13.833 98.5919 13.833C99.6175 13.833 100.63 13.9677 101.637 14.2423C102.641 14.5168 103.697 14.9467 104.799 15.5373V18.8368C103.644 18.1063 102.561 17.5675 101.544 17.2155C100.532 16.8682 99.5464 16.6924 98.5919 16.6924C96.4654 16.6924 94.7117 17.464 93.3219 19.0074C91.9324 20.5509 91.2399 22.4832 91.2399 24.8085C91.2399 27.1084 91.9236 29.0249 93.2909 30.5683C94.6583 32.1118 96.3719 32.8834 98.4365 32.8834C99.4974 32.8834 100.567 32.6764 101.651 32.262C102.739 31.8475 103.84 31.2155 104.958 30.3661ZM107.831 14.1751H110.414V26.3571C110.414 27.7144 110.477 28.6776 110.601 29.2422C110.73 29.8067 110.938 30.2989 111.236 30.7133C111.773 31.454 112.408 32.0028 113.145 32.3706C113.882 32.7332 114.721 32.9146 115.658 32.9146C117.234 32.9146 118.503 32.4381 119.467 31.49C120.43 30.5372 120.91 29.2836 120.91 27.7247V14.1751H123.494V27.818C123.494 30.1796 122.77 32.0961 121.322 33.5672C119.875 35.038 117.988 35.7736 115.658 35.7736C114.277 35.7736 113.034 35.4888 111.924 34.9191C110.814 34.3439 109.882 33.5103 109.118 32.407C108.647 31.7492 108.319 31.0187 108.124 30.2108C107.928 29.4029 107.831 28.1597 107.831 26.4815V14.1751ZM129.886 26.0466V32.6349H133.349C134.615 32.6349 135.538 32.3757 136.12 31.8527C136.705 31.3296 136.999 30.5162 136.999 29.4029C136.999 28.2478 136.67 27.3984 136.017 26.8596C135.365 26.316 134.335 26.0466 132.932 26.0466H129.886ZM127.303 35.4007V14.1751H132.63C134.446 14.1751 135.844 14.6567 136.825 15.6151C137.811 16.5782 138.304 17.9404 138.304 19.7118C138.304 20.8049 138.082 21.7163 137.642 22.4417C137.199 23.1717 136.524 23.7311 135.614 24.125C136.936 24.4928 137.962 25.1557 138.686 26.1137C139.409 27.0773 139.769 28.2426 139.769 29.6202C139.769 31.3814 139.218 32.785 138.113 33.8311C137.007 34.8776 135.511 35.4007 133.62 35.4007H127.303ZM129.886 23.2808H131.645C132.972 23.2808 133.957 23.001 134.597 22.4468C135.24 21.8925 135.56 21.0432 135.56 19.8983C135.56 18.8573 135.307 18.0961 134.801 17.6247C134.29 17.1479 133.483 16.9097 132.372 16.9097H129.886V23.2808ZM146.197 26.4195H151.867L148.995 18.7744L146.197 26.4195ZM140.199 35.4007L148.084 14.1751H149.98L157.967 35.4007H155.276L152.932 29.1541H145.181L142.868 35.4007H140.199ZM162.313 35.4007V16.9409H155.627V14.1751H171.583V16.9409H164.897V35.4007H162.313ZM175.494 24.8085C175.494 25.8913 175.668 26.9271 176.014 27.906C176.36 28.885 176.862 29.7549 177.51 30.5162C178.145 31.2728 178.886 31.8578 179.743 32.2671C180.595 32.6764 181.488 32.8834 182.416 32.8834C183.366 32.8834 184.263 32.6815 185.102 32.2825C185.937 31.8839 186.687 31.2933 187.344 30.5162C187.992 29.7549 188.494 28.885 188.844 27.906C189.195 26.9271 189.373 25.8913 189.373 24.8085C189.373 23.726 189.199 22.7055 188.853 21.7372C188.507 20.7737 187.992 19.888 187.317 19.0904C186.669 18.3082 185.923 17.718 185.079 17.3087C184.24 16.8994 183.353 16.6924 182.416 16.6924C181.51 16.6924 180.64 16.8994 179.792 17.3138C178.948 17.7282 178.185 18.3184 177.51 19.0904C176.862 19.826 176.36 20.6908 176.014 21.6855C175.668 22.6747 175.494 23.7157 175.494 24.8085ZM172.724 24.6947C172.724 23.2808 172.973 21.9028 173.465 20.5719C173.958 19.2354 174.664 18.0546 175.574 17.0341C176.502 15.9932 177.55 15.2007 178.722 14.6516C179.89 14.1076 181.124 13.833 182.416 13.833C183.73 13.833 184.982 14.1076 186.168 14.6618C187.348 15.2109 188.391 16.0034 189.293 17.0341C190.238 18.1063 190.949 19.3029 191.428 20.6133C191.903 21.9289 192.143 23.3582 192.143 24.8966C192.143 26.3417 191.899 27.7299 191.406 29.0608C190.917 30.3922 190.221 31.5627 189.319 32.5725C188.374 33.6241 187.322 34.4218 186.154 34.9606C184.986 35.5042 183.739 35.7736 182.416 35.7736C181.124 35.7736 179.885 35.4939 178.7 34.9396C177.519 34.3803 176.476 33.5929 175.574 32.5725C174.638 31.5109 173.927 30.3092 173.448 28.9782C172.964 27.6418 172.724 26.2121 172.724 24.6947ZM195.015 35.4007V14.1751H200.343C202.181 14.1751 203.601 14.6828 204.6 15.6925C205.599 16.7027 206.097 18.1375 206.097 19.9864C206.097 21.3849 205.822 22.5088 205.275 23.3582C204.725 24.2076 203.864 24.8448 202.678 25.2695C202.984 25.4611 203.269 25.7151 203.54 26.0362C203.81 26.3519 204.157 26.8856 204.583 27.6366L209 35.4007H205.852L202.732 29.8327C201.795 28.1545 201.04 27.0824 200.463 26.6214C199.89 26.1552 199.202 25.9221 198.408 25.9221H197.626V35.4007H195.015ZM197.626 23.374H199.784C200.996 23.374 201.901 23.0994 202.505 22.5554C203.105 22.0063 203.406 21.1727 203.406 20.0484C203.406 18.8937 203.122 18.0597 202.549 17.5366C201.977 17.0136 201.054 16.7545 199.784 16.7545H197.626V23.374Z"
              fill="black"/>
        <path fill-rule="evenodd" clip-rule="evenodd"
              d="M51.023 6.34473C52.573 6.34473 53.8298 7.59712 53.8298 9.14171C53.8298 10.6863 52.573 11.9387 51.023 11.9387C49.4729 11.9387 48.2161 10.6863 48.2161 9.14171C48.2161 7.59712 49.4729 6.34473 51.023 6.34473Z"
              fill="#FF0808"/>
        <path fill-rule="evenodd" clip-rule="evenodd"
              d="M60.6824 0.664425C47.749 0.664425 37.2646 11.1123 37.2646 24.0002C37.2646 36.8877 47.749 47.3356 60.6824 47.3356C73.6158 47.3356 84.1006 36.8877 84.1006 24.0002C84.1006 11.1123 73.6158 0.664425 60.6824 0.664425ZM36.5978 24.0002C36.5978 10.7454 47.3808 0 60.6824 0C73.9841 0 84.7674 10.7454 84.7674 24.0002C84.7674 37.2546 73.9841 48 60.6824 48C47.3808 48 36.5978 37.2546 36.5978 24.0002Z"
              fill="black"/>
        <path fill-rule="evenodd" clip-rule="evenodd" d="M49.7365 14.1777H52.3092V35.3866H49.7365V14.1777Z"
              fill="black"/>
        <path fill-rule="evenodd" clip-rule="evenodd"
              d="M0 35.4179V14.2363H3.10743V35.4179H0ZM13.6985 35.4179V16.9966H5.73901V14.2363H24.7333V16.9966H16.7742V35.4179H13.6985Z"
              fill="black"/>
        <path fill-rule="evenodd" clip-rule="evenodd"
              d="M28.569 22.7803C30.1194 22.7803 31.3759 24.0323 31.3759 25.5773C31.3759 27.1222 30.1194 28.3742 28.569 28.3742C27.0186 28.3742 25.7621 27.1222 25.7621 25.5773C25.7621 24.0323 27.0186 22.7803 28.569 22.7803Z"
              fill="black"/>
    </symbol>
</svg>